/vscmnt/brussel_pixiu_data/_data_brussel/112/vsc11236/PredSimResults/SUBJ06mtu3D/weighted-trackIG/worker_03.mot
version=1
nRows=7
nColumns=50
inDegrees=yes
endheader
                time	         pelvis_tilt	         pelvis_list	     pelvis_rotation	           pelvis_tx	           pelvis_ty	           pelvis_tz	       hip_flexion_r	     hip_adduction_r	      hip_rotation_r	        knee_angle_r	       ankle_angle_r	         mtp_angle_r	       hip_flexion_l	     hip_adduction_l	      hip_rotation_l	        knee_angle_l	       ankle_angle_l	         mtp_angle_l	    lumbar_extension	      lumbar_bending	     lumbar_rotation	 ercspn_r/activation	 intobl_r/activation	 extobl_r/activation	    abd_r/activation	    add_r/activation	hamstrings_r/activation	bifemsh_r/activation	glut_max_r/activation	iliopsoas_r/activation	rect_fem_r/activation	  vasti_r/activation	gastroc_r/activation	 soleus_r/activation	tib_ant_r/activation	 ercspn_l/activation	 intobl_l/activation	 extobl_l/activation	    abd_l/activation	    add_l/activation	hamstrings_l/activation	bifemsh_l/activation	glut_max_l/activation	iliopsoas_l/activation	rect_fem_l/activation	  vasti_l/activation	gastroc_l/activation	 soleus_l/activation	tib_ant_l/activation	
          0.00000000	         -8.15652597	         -4.77610414	          9.71343391	          0.00000000	          0.92589957	         -0.01695118	         31.58520372	          0.53600068	         -6.38983373	         -1.30661340	          6.61919854	          0.21271718	         -9.89302318	         -4.90317172	          7.78363141	         -6.50340414	         10.17605068	         29.56106983	         -1.41219072	          2.66756776	         -3.13798254	          0.10140216	          0.17218495	          0.02951668	          0.01045460	          0.10120920	          0.08287316	          0.22479599	          0.00999999	          0.09894513	          0.00999999	          0.00999999	          0.02472059	          0.00999999	          0.28756034	          0.05742698	          0.00999999	          0.00999999	          0.05899178	          0.01098561	          0.01971024	          0.14449891	          0.05766539	          0.44100100	          0.00999999	          0.00999999	          0.36574484	          0.33583318	          0.01793239	
          0.01289495	         -8.26338532	         -4.70540815	          9.77161703	          0.01742536	          0.92362185	         -0.01661070	         31.75199551	          0.63702317	         -6.16729167	         -3.08846135	          6.17478034	          0.21140507	        -10.20795979	         -4.88948634	          7.38750797	         -7.70996821	          9.53602441	         31.50836080	         -1.11669099	          3.01022394	         -3.28205586	          0.08346435	          0.14215369	          0.02429525	          0.00999999	          0.14412207	          0.07649566	          0.18503010	          0.06130049	          0.08144196	          0.00999999	          0.00999999	          0.02838173	          0.01809913	          0.29791679	          0.09463422	          0.00999999	          0.00999999	          0.04855627	          0.04308121	          0.01622355	          0.11893739	          0.04746451	          0.45437764	          0.00999999	          0.00999999	          0.33758271	          0.31708285	          0.01476019	
          0.02578990	         -8.34889681	         -4.62381253	          9.76900113	          0.03529060	          0.92159897	         -0.01618754	         31.70766042	          0.72654883	         -5.92915475	         -4.74866646	          5.69254291	          0.19583483	        -10.40645021	         -4.84831182	          6.95903271	         -9.21136577	          8.73856117	         33.51245118	         -0.80037157	          3.35434843	         -3.39984513	          0.07544662	          0.11700703	          0.01999747	          0.05862146	          0.11862721	          0.07579101	          0.15229870	          0.10229401	          0.06703507	          0.00999999	          0.00999999	          0.02336107	          0.01489744	          0.35349537	          0.10099778	          0.00999999	          0.00999999	          0.03996677	          0.03546025	          0.02172663	          0.09789764	          0.03906815	          0.44539089	          0.00999999	          0.01793239	          0.29809895	          0.29341487	          0.01214915	
          0.03868484	         -8.41570336	         -4.52840895	          9.70674481	          0.05331646	          0.92007123	         -0.01565454	         31.48120324	          0.83272341	         -5.73340296	         -6.09869841	          5.05306456	          0.17095543	        -10.39317049	         -4.76970728	          6.50804110	        -11.12452664	          7.72632853	         35.55987922	         -0.49240354	          3.69322155	         -3.48582473	          0.08513430	          0.09630876	          0.01645997	          0.11446070	          0.13993123	          0.06963996	          0.12535741	          0.14898619	          0.05517672	          0.00999999	          0.00999999	          0.01922855	          0.01226212	          0.38873173	          0.13176575	          0.00999999	          0.00999999	          0.03289674	          0.04787575	          0.02209470	          0.08057977	          0.03215708	          0.43377924	          0.01214914	          0.01476019	          0.24536593	          0.25325381	          0.00999999	
          0.05157979	         -8.46315349	         -4.42436129	          9.58868927	          0.07125395	          0.91920544	         -0.01503062	         31.16152402	          0.95837690	         -5.57119115	         -7.34129365	          4.57076580	          0.13993586	        -10.08364551	         -4.65164799	          6.03204403	        -13.56360009	          6.49110534	         37.54186369	         -0.21433364	          4.03535884	         -3.53571169	          0.08242614	          0.07927196	          0.01354824	          0.15236358	          0.15263219	          0.06341986	          0.10318198	          0.17890517	          0.04541609	          0.00999999	          0.01449420	          0.01582706	          0.01058176	          0.40989579	          0.16220198	          0.00999999	          0.00999999	          0.02707739	          0.06722409	          0.02341838	          0.06632540	          0.02646857	          0.40446622	          0.00999999	          0.01214915	          0.20196127	          0.20845380	          0.00999999	
          0.06447474	         -8.49082052	         -4.31447966	          9.41725601	          0.08889803	          0.91907580	         -0.01434239	         30.79693447	          1.09737543	         -5.42747977	         -8.54740086	          4.29978322	          0.11658446	         -9.42089850	         -4.49494444	          5.52080552	        -16.59824066	          5.05400599	         39.23282911	          0.01736476	          4.38615164	         -3.54646923	          0.07586776	          0.06524894	          0.01115158	          0.16725840	          0.12563191	          0.06339651	          0.08492932	          0.18283898	          0.03738208	          0.00999999	          0.09445911	          0.01302729	          0.00999999	          0.41757661	          0.17547030	          0.00999999	          0.00999999	          0.02228746	          0.09573510	          0.02937414	          0.05459259	          0.02178634	          0.35229382	          0.00999999	          0.00999999	          0.16623478	          0.17157880	          0.00999999	
          0.07736969	         -8.50064168	         -4.19013777	          9.19602061	          0.10610532	          0.91973983	         -0.01363258	         30.34854065	          1.24082998	         -5.27392105	         -9.61194992	          4.17955839	          0.09436434	         -8.38871682	         -4.29681982	          4.95930333	        -20.22537518	          3.49808270	         40.17825990	          0.19098961	          4.73858121	         -3.51765924	          0.06244693	          0.05370655	          0.00999999	          0.16771286	          0.10340791	          0.05790770	          0.06990552	          0.17230138	          0.03076928	          0.00999999	          0.16502140	          0.01072279	          0.00999999	          0.41193017	          0.18887467	          0.00999999	          0.00999999	          0.01834486	          0.11402027	          0.02417792	          0.04606385	          0.01793239	          0.28997386	          0.00999999	          0.00999999	          0.13682823	          0.14122691	          0.00999999	
